Coordinates
version=1
nRows=21
nColumns=12
inDegrees=yes

Units are S.I. units (second, meters, Newtons, ...)
Angles are in degrees

endheader
time	SC_y	SC_z	SC_x	AC_y	AC_z	AC_x	GH_y	GH_z	GH_yy	EL_x	PS_y
       0.0              -32.05          9.454          60.11          35.18          -16.8          3.233         -102.0          2.797         -128.8           57.6          45.42
   0.04016              -32.05          9.454           60.1          35.18          -16.8          3.231         -102.0          2.795         -128.7          57.59          45.43
   0.08032              -32.05          9.454           60.1          35.19          -16.8          3.228         -101.9          2.792         -128.7          57.59          45.43
    0.1205              -32.05          9.453          60.09          35.19          -16.8          3.226         -101.9          2.789         -128.7          57.58          45.44
    0.1606              -32.05          9.453          60.08          35.19          -16.8          3.223         -101.8          2.786         -128.6          57.58          45.45
    0.2008              -32.05          9.452          60.07          35.19          -16.8           3.22         -101.8          2.782         -128.6          57.57          45.45
     0.241              -32.05          9.452          60.06          35.19          -16.8          3.217         -101.7          2.779         -128.6          57.56          45.46
    0.2811              -32.05          9.451          60.05           35.2          -16.8          3.213         -101.7          2.775         -128.5          57.56          45.47
    0.3213              -32.05          9.451          60.04           35.2          -16.8          3.209         -101.6          2.771         -128.5          57.55          45.48
    0.3614              -32.05           9.45          60.02           35.2          -16.8          3.205         -101.5          2.767         -128.5          57.54          45.48
    0.4016              -32.05           9.45          60.01          35.21          -16.8          3.201         -101.5          2.762         -128.4          57.53          45.49
    0.4417              -32.05          9.449           60.0          35.21          -16.8          3.197         -101.4          2.757         -128.4          57.52           45.5
    0.4819              -32.05          9.448          59.98          35.21          -16.8          3.192         -101.3          2.751         -128.3          57.51          45.51
    0.5221              -32.05          9.447          59.96          35.22          -16.8          3.186         -101.2          2.746         -128.3           57.5          45.53
    0.5622              -32.05          9.447          59.94          35.22          -16.8           3.18         -101.1          2.739         -128.2          57.49          45.54
    0.6024              -32.05          9.446          59.93          35.23          -16.8          3.174         -101.0          2.732         -128.1          57.48          45.55
    0.6425              -32.05          9.445           59.9          35.23          -16.8          3.167         -100.9          2.725         -128.1          57.47          45.57
    0.6827              -32.05          9.444          59.88          35.24          -16.8           3.16         -100.8          2.717         -128.0          57.45          45.59
    0.7229              -32.05          9.443          59.85          35.24         -16.81          3.152         -100.6          2.708         -127.9          57.44           45.6
     0.763              -32.05          9.441          59.83          35.25         -16.81          3.143         -100.5          2.698         -127.8          57.42          45.62
    0.8032              -32.04           9.44           59.8          35.26         -16.81          3.133         -100.3          2.687         -127.7           57.4          45.64
